<svg xmlns="http://www.w3.org/2000/svg" version="1.1" xmlns:xlink="http://www.w3.org/1999/xlink" xmlns:svgjs="http://svgjs.dev/svgjs" width="1440" height="1440" preserveAspectRatio="none" viewBox="0 0 1440 1440"><g mask="url(&quot;#SvgjsMask1013&quot;)" fill="none"><rect width="1440" height="1440" x="0" y="0" fill="#0e2a47"></rect><path d="M0,690.27C130.619,684.667,252.582,634.826,363.488,565.598C475.543,495.652,581.177,410.599,638.611,291.644C696.693,171.348,720.334,30.211,684.058,-98.353C649.525,-220.739,544.829,-306.078,447.023,-387.348C361.833,-458.135,265.759,-513.138,157.38,-535.988C54.529,-557.672,-51.44,-547.839,-150.741,-513.375C-246.77,-480.047,-322.588,-413.32,-396.653,-343.702C-478.543,-266.728,-577.876,-196.108,-604.446,-86.906C-631.774,25.414,-575.735,136.717,-540.316,246.754C-500.274,371.153,-485.109,514.749,-384.096,597.665C-280.194,682.952,-134.3,696.031,0,690.27" fill="#0b2239"></path><path d="M1440 2141.63C1568.792 2150.437 1662.27 2019.583 1754.29 1929.0439999999999 1831.336 1853.237 1885.374 1762.157 1927.041 1662.424 1967.516 1565.542 1997.02 1465.535 1991.745 1360.671 1986.104 1248.546 1954.404 1140.759 1895.976 1044.894 1829.58 935.9549999999999 1758.941 806.209 1635.108 775.525 1511.406 744.873 1393.086 835.033 1279.105 892.041 1182.875 940.171 1103.571 1006.854 1025.2 1080.574 937.913 1162.68 812.19 1228.667 795.139 1347.283 778.088 1465.899 874.715 1568.002 940.7570000000001 1667.997 997.9490000000001 1754.592 1076.884 1816.446 1152.171 1887.871 1246.881 1977.723 1309.754 2132.724 1440 2141.63" fill="#113255"></path></g><defs><mask id="SvgjsMask1013"><rect width="1440" height="1440" fill="#ffffff"></rect></mask></defs></svg>