<svg xmlns="http://www.w3.org/2000/svg" version="1.1" xmlns:xlink="http://www.w3.org/1999/xlink" xmlns:svgjs="http://svgjs.dev/svgjs" width="1920" height="1080" preserveAspectRatio="none" viewBox="0 0 1920 1080"><g mask="url(&quot;#SvgjsMask1160&quot;)" fill="none"><rect width="1920" height="1080" x="0" y="0" fill="rgba(31, 37, 68, 1)"></rect><path d="M0,612.579C112.39,634.488,222.885,557.052,311.004,483.931C393.087,415.818,442.597,318.701,476.166,217.458C507.138,124.048,501.15,27.043,495.062,-71.179C488.446,-177.916,511.064,-301.376,439.103,-380.485C367.184,-459.548,241.804,-446.348,136.607,-465.24C42.95,-482.06,-53.233,-518.181,-142.383,-484.912C-229.645,-452.348,-272.282,-359.165,-334.167,-289.557C-396.992,-218.891,-476.228,-161.99,-508.496,-73.111C-544.968,27.346,-581.163,148.595,-526.604,240.492C-471.803,332.796,-329.424,314.233,-241.755,376.178C-147.802,442.563,-112.915,590.568,0,612.579" fill="#191e37"></path><path d="M1920 1865.094C2086.284 1869.476 2282.762 1948.9270000000001 2408.262 1839.751 2536.687 1728.03 2478.96 1517.287 2511.8 1350.266 2536.103 1226.663 2565.619 1111.178 2576.195 985.653 2589.91 822.865 2661.383 648.8489999999999 2582.971 505.53200000000004 2502.244 357.98299999999995 2332.916 266.85 2167.2 238.11300000000006 2008.0529999999999 210.515 1861.789 308.438 1706.702 353.57399999999996 1551.166 398.84000000000003 1372.55 392.347 1254.845 503.64 1133.507 618.3679999999999 1079.362 790.898 1067.9850000000001 957.499 1057.058 1117.516 1127.789 1265.477 1192.808 1412.097 1258.521 1560.28 1310.413 1728.7350000000001 1448.001 1814.444 1585.085 1899.839 1758.549 1860.839 1920 1865.094" fill="#252c51"></path></g><defs><mask id="SvgjsMask1160"><rect width="1920" height="1080" fill="#ffffff"></rect></mask></defs></svg>